<svg width="32" height="32" viewBox="0 0 32 32" fill="none" xmlns="http://www.w3.org/2000/svg">
<path d="M0 16.0961C0.000901171 19.9297 1.36075 23.6373 3.83514 26.5525C6.30953 29.4676 9.73618 31.3992 13.4992 32V20.7486H9.44V16.0961H13.504V12.5544C13.4143 11.7255 13.507 10.8868 13.7757 10.098C14.0444 9.30923 14.4824 8.58962 15.0586 7.99033C15.6348 7.39104 16.3351 6.92676 17.1098 6.63046C17.8844 6.33417 18.7144 6.21313 19.5408 6.27594C20.7408 6.29525 21.9408 6.40312 23.1248 6.59791V10.5566H21.1024C20.7587 10.5113 20.4092 10.5443 20.0799 10.6531C19.7505 10.762 19.4497 10.9439 19.1996 11.1855C18.9496 11.4271 18.7566 11.7221 18.6351 12.0487C18.5136 12.3754 18.4666 12.7254 18.4976 13.0728V16.0961H22.9312L22.2224 20.7502H18.4976V32C21.5178 31.5198 24.338 30.1788 26.6243 28.1359C28.9105 26.0931 30.5672 23.4338 31.398 20.4731C32.2288 17.5123 32.1991 14.374 31.3123 11.4297C30.4255 8.48536 28.7188 5.85839 26.3942 3.85976C24.0696 1.86113 21.2245 0.574542 18.1958 0.15233C15.167 -0.269882 12.0815 0.189958 9.3044 1.47741C6.52734 2.76486 4.17507 4.826 2.52609 7.41681C0.87711 10.0076 0.000485392 13.0196 0 16.0961Z" fill="#2C0707"/>
</svg>
