<svg width="36" height="60" viewBox="0 0 36 60" fill="none" xmlns="http://www.w3.org/2000/svg">
<circle cx="20.5" cy="34.5" r="15.5" fill="#009CDE"/>
<circle cx="23.5" cy="18.5" r="1.5" fill="#009CDE"/>
<circle cx="23" cy="15" r="1" fill="#009CDE"/>
<circle cx="17" cy="10" r="1" fill="#009CDE"/>
<circle cx="28" cy="15" r="1" fill="#009CDE"/>
<circle cx="21" cy="11" r="1" fill="#009CDE"/>
<circle cx="25" cy="7" r="1" fill="#009CDE"/>
<circle cx="21.5" cy="2.5" r="0.5" fill="#009CDE"/>
<circle cx="20.5" cy="6.5" r="0.5" fill="#009CDE"/>
<circle cx="13.5" cy="14.5" r="0.5" fill="#009CDE"/>
<circle cx="28.5" cy="19.5" r="0.5" fill="#009CDE"/>
<circle cx="25.5" cy="3.5" r="0.5" fill="#009CDE"/>
<circle cx="28.5" cy="0.5" r="0.5" fill="#009CDE"/>
<circle cx="24.5" cy="10.5" r="0.5" fill="#009CDE"/>
<circle cx="17.5" cy="16.5" r="1.5" fill="#009CDE"/>
<path fill-rule="evenodd" clip-rule="evenodd" d="M17.4545 19.8299H6.54545C2.90836 21.4643 0.726545 23.9145 0 27.1807V51.6834C0 53.633 0.689609 55.5027 1.91712 56.8812C3.14463 58.2598 4.80949 59.0342 6.54545 59.0342H17.4545C19.1905 59.0342 20.8554 58.2598 22.0829 56.8812C23.3104 55.5027 24 53.633 24 51.6834V27.1807C23.2735 23.9145 21.0916 21.4643 17.4545 19.8299ZM2.18182 51.6834V27.5066C2.75782 25.3014 4.296 23.5739 6.97964 22.2802H17.0182C19.7018 23.5739 21.24 25.3014 21.816 27.5066V51.6834C21.816 52.9831 21.3563 54.2296 20.5379 55.1486C19.7196 56.0676 18.6097 56.5839 17.4524 56.5839H6.54327C5.38596 56.5839 4.27606 56.0676 3.45772 55.1486C2.63938 54.2296 2.17964 52.9831 2.17964 51.6834H2.18182Z" fill="#2C0707"/>
<path fill-rule="evenodd" clip-rule="evenodd" d="M5.45453 38.2069C5.45453 40.8063 6.37401 43.2993 8.01069 45.1373C9.64737 46.9754 11.8672 48.008 14.1818 48.008C16.4964 48.008 18.7162 46.9754 20.3529 45.1373C21.9896 43.2993 22.9091 40.8063 22.9091 38.2069C22.9091 35.6075 21.9896 33.1146 20.3529 31.2765C18.7162 29.4385 16.4964 28.4059 14.1818 28.4059C11.8672 28.4059 9.64737 29.4385 8.01069 31.2765C6.37401 33.1146 5.45453 35.6075 5.45453 38.2069V38.2069ZM20.7273 38.2069C20.7273 39.1723 20.558 40.1281 20.229 41.02C19.9001 41.9118 19.4179 42.7221 18.8101 43.4047C18.2023 44.0873 17.4808 44.6288 16.6866 44.9982C15.8925 45.3676 15.0414 45.5577 14.1818 45.5577C13.3222 45.5577 12.4711 45.3676 11.677 44.9982C10.8828 44.6288 10.1613 44.0873 9.55347 43.4047C8.94566 42.7221 8.46353 41.9118 8.13459 41.02C7.80565 40.1281 7.63635 39.1723 7.63635 38.2069C7.63635 36.2574 8.32595 34.3877 9.55347 33.0091C10.781 31.6306 12.4458 30.8561 14.1818 30.8561C15.9178 30.8561 17.5826 31.6306 18.8101 33.0091C20.0376 34.3877 20.7273 36.2574 20.7273 38.2069V38.2069Z" fill="#2C0707"/>
<path d="M19.2917 33.5808C19.2703 33.4217 19.2771 33.2594 19.3116 33.1032C19.3461 32.9471 19.4077 32.8 19.4927 32.6706C19.5778 32.5411 19.6848 32.4317 19.8075 32.3487C19.9303 32.2657 20.0664 32.2106 20.208 32.1866C20.3497 32.1626 20.4942 32.1702 20.6333 32.209C20.7724 32.2477 20.9033 32.3169 21.0186 32.4124C21.1338 32.508 21.2312 32.6281 21.3052 32.7659C21.3791 32.9038 21.4281 33.0566 21.4495 33.2157C21.8008 35.8375 21.5149 37.9839 20.5419 39.606C19.4073 41.4903 17.6771 42.5635 16.0015 43.0584C15.8051 43.1148 15.4997 43.1932 15.0306 43.3059L13.6931 43.6269L13.4531 43.6857C12.9987 43.7933 12.5456 43.9076 12.0939 44.0288C11.5964 44.1684 10.6866 44.4821 9.3884 44.9672C9.11383 45.0699 8.81419 45.0459 8.55539 44.9004C8.29658 44.755 8.09983 44.5001 8.0084 44.1917C7.91697 43.8833 7.93836 43.5468 8.06787 43.2562C8.19737 42.9655 8.42438 42.7446 8.69895 42.6419C10.0517 42.1372 11.0029 41.8088 11.5746 41.6495C11.9368 41.5515 12.3928 41.4364 12.9928 41.2894L13.2349 41.2306L14.5702 40.912C15.0088 40.8042 15.2902 40.7331 15.4473 40.6866C16.6582 40.3313 17.9564 39.5252 18.7309 38.2363C19.3637 37.1827 19.5688 35.6464 19.2917 33.5808Z" fill="#2C0707"/>
</svg>
