<svg width="17" height="20" viewBox="0 0 17 20" fill="none" xmlns="http://www.w3.org/2000/svg">
<path d="M16.851 18.0662L11.703 12.2306C12.7293 10.8509 13.2425 9.25996 13.2425 7.45769C13.2425 6.10287 12.9473 4.85371 12.3569 3.7102C11.7665 2.56669 10.9609 1.66244 9.94012 0.997465C8.91934 0.332488 7.81029 0 6.61295 0C5.41561 0 4.30932 0.332488 3.29406 0.997465C2.27881 1.66244 1.47598 2.56669 0.885589 3.7102C0.295196 4.85371 0 6.10287 0 7.45769C0 8.8125 0.295196 10.0617 0.885589 11.2052C1.47598 12.3487 2.27881 13.2529 3.29406 13.9179C4.30932 14.5829 5.41837 14.9154 6.62123 14.9154C8.2655 14.9154 9.71113 14.3063 10.9581 13.0882L16.0896 18.9052C16.1999 19.0295 16.3268 19.0917 16.4703 19.0917C16.6138 19.0917 16.7379 19.0326 16.8427 18.9146C16.9476 18.7965 17 18.6535 17 18.4857C17 18.3179 16.9503 18.1781 16.851 18.0662ZM6.62123 13.7408C5.60597 13.7408 4.67072 13.458 3.81548 12.8925C2.96024 12.3269 2.28432 11.5625 1.78773 10.5992C1.29114 9.63595 1.04284 8.58877 1.04284 7.45769C1.04284 6.3266 1.29114 5.27942 1.78773 4.31614C2.28432 3.35285 2.96024 2.58844 3.81548 2.0229C4.67072 1.45736 5.60321 1.17459 6.61295 1.17459C7.62269 1.17459 8.55518 1.45736 9.41042 2.0229C10.2657 2.58844 10.9416 3.35285 11.4382 4.31614C11.9348 5.27942 12.1831 6.3266 12.1831 7.45769C12.1831 7.94244 12.1334 8.42097 12.0341 8.89329C11.9348 9.36561 11.7941 9.80686 11.612 10.217C11.4299 10.6272 11.2119 11.0156 10.9581 11.3823C10.7043 11.749 10.4174 12.0752 10.0974 12.3611C9.77734 12.647 9.43525 12.8925 9.07108 13.0976C8.70691 13.3026 8.31516 13.4611 7.89581 13.573C7.47647 13.6849 7.05161 13.7408 6.62123 13.7408Z" fill="#2C0707" fill-opacity="0.4"/>
</svg>
