<svg width="29" height="33" viewBox="0 0 29 33" fill="none" xmlns="http://www.w3.org/2000/svg">
<path d="M22.895 25.7117C23.7046 25.7117 24.481 26.0729 25.0535 26.7158C25.626 27.3587 25.9476 28.2307 25.9476 29.1399C25.9476 30.0491 25.626 30.9211 25.0535 31.564C24.481 32.207 23.7046 32.5682 22.895 32.5682C22.0853 32.5682 21.3089 32.207 20.7364 31.564C20.1639 30.9211 19.8423 30.0491 19.8423 29.1399C19.8423 28.2307 20.1639 27.3587 20.7364 26.7158C21.3089 26.0729 22.0853 25.7117 22.895 25.7117ZM22.895 27.4258C22.4902 27.4258 22.1019 27.6064 21.8157 27.9279C21.5294 28.2493 21.3686 28.6853 21.3686 29.1399C21.3686 29.5945 21.5294 30.0305 21.8157 30.352C22.1019 30.6734 22.4902 30.854 22.895 30.854C23.2998 30.854 23.688 30.6734 23.9742 30.352C24.2605 30.0305 24.4213 29.5945 24.4213 29.1399C24.4213 28.6853 24.2605 28.2493 23.9742 27.9279C23.688 27.6064 23.2998 27.4258 22.895 27.4258ZM9.15799 25.7117C9.9676 25.7117 10.7441 26.0729 11.3165 26.7158C11.889 27.3587 12.2106 28.2307 12.2106 29.1399C12.2106 30.0491 11.889 30.9211 11.3165 31.564C10.7441 32.207 9.9676 32.5682 9.15799 32.5682C8.34837 32.5682 7.57191 32.207 6.99943 31.564C6.42694 30.9211 6.10532 30.0491 6.10532 29.1399C6.10532 28.2307 6.42694 27.3587 6.99943 26.7158C7.57191 26.0729 8.34837 25.7117 9.15799 25.7117ZM9.15799 27.4258C8.75318 27.4258 8.36495 27.6064 8.07871 27.9279C7.79246 28.2493 7.63165 28.6853 7.63165 29.1399C7.63165 29.5945 7.79246 30.0305 8.07871 30.352C8.36495 30.6734 8.75318 30.854 9.15799 30.854C9.56279 30.854 9.95102 30.6734 10.2373 30.352C10.5235 30.0305 10.6843 29.5945 10.6843 29.1399C10.6843 28.6853 10.5235 28.2493 10.2373 27.9279C9.95102 27.6064 9.56279 27.4258 9.15799 27.4258ZM25.9476 5.14234H4.99568L8.88325 15.427H21.3686C21.606 15.4274 21.8401 15.3653 22.0522 15.2456C22.2642 15.1259 22.4483 14.9521 22.5897 14.7379L27.1687 7.88149H27.1702C27.3395 7.6267 27.4423 7.32406 27.4673 7.0074C27.4922 6.69074 27.4382 6.37254 27.3114 6.08834C27.1845 5.80415 26.9898 5.56517 26.749 5.39811C26.5082 5.23106 26.2307 5.1425 25.9476 5.14234ZM21.3686 17.1411H8.95346L7.78429 19.8152L7.63165 20.5694C7.63165 21.024 7.79246 21.46 8.07871 21.7814C8.36495 22.1029 8.75318 22.2835 9.15799 22.2835H25.9476V23.9976H9.15799C8.62647 23.9979 8.10409 23.8423 7.64254 23.5463C7.181 23.2502 6.79628 22.824 6.52645 22.3097C6.25662 21.7954 6.11104 21.211 6.1041 20.6141C6.09717 20.0172 6.22912 19.4287 6.48691 18.9067L7.58586 16.3801L2.04223 1.71411H0V0H3.05266L4.34852 3.42823H25.9476C26.5244 3.42829 27.0893 3.61185 27.577 3.95764C28.0647 4.30343 28.4552 4.79731 28.7033 5.38206C28.9513 5.96682 29.0468 6.61853 28.9786 7.26171C28.9104 7.90489 28.6814 8.51322 28.318 9.01624L23.8703 15.6773C23.5891 16.1295 23.2148 16.4987 22.7792 16.7536C22.3437 17.0084 21.8598 17.1414 21.3686 17.1411Z" fill="#2C0707"/>
</svg>
